<svg width="122" height="32" fill="none" xmlns="http://www.w3.org/2000/svg"><path d="M117 0H31v32h86a5 5 0 0 0 5-5V5a5 5 0 0 0-5-5Z" fill="#0F1418"/><path d="M31 0H5a5 5 0 0 0-5 5v22a5 5 0 0 0 5 5h26V0Z" fill="#2BA7DD"/><path d="m26.948 8.232-3.622 17.08c-.273 1.205-.986 1.505-1.998.937l-5.519-4.066-2.662 2.56c-.295.296-.542.542-1.11.542l.397-5.62 10.228-9.242c.444-.396-.097-.616-.691-.22L9.327 18.165 3.883 16.46c-1.184-.37-1.205-1.184.247-1.752l21.29-8.202c.987-.37 1.85.22 1.528 1.725ZM51.942 13.423h-2.996V22h-2.373v-8.577h-2.98v-1.926h8.349v1.926Zm7.02 5.486H54.07c.078 1.089.764 1.634 2.058 1.634.825 0 1.55-.196 2.175-.587v1.67c-.693.372-1.594.557-2.702.557-1.211 0-2.151-.334-2.82-1.003-.669-.674-1.003-1.612-1.003-2.813 0-1.245.36-2.231 1.084-2.959.722-.727 1.61-1.091 2.666-1.091 1.093 0 1.938.325 2.534.974.6.65.9 1.53.9 2.644v.974Zm-2.145-1.42c0-1.075-.435-1.612-1.304-1.612-.371 0-.694.154-.967.461-.268.308-.432.691-.49 1.15h2.76ZM62.834 22H60.52V10.896h2.314V22Zm8.867-3.09h-4.893c.078 1.088.764 1.633 2.058 1.633.825 0 1.55-.196 2.175-.587v1.67c-.693.372-1.594.557-2.702.557-1.211 0-2.151-.334-2.82-1.003-.67-.674-1.004-1.612-1.004-2.813 0-1.245.362-2.231 1.085-2.959.722-.727 1.61-1.091 2.666-1.091 1.093 0 1.938.325 2.534.974.6.65.9 1.53.9 2.644v.974Zm-2.146-1.422c0-1.074-.435-1.611-1.304-1.611-.371 0-.694.154-.967.461-.269.308-.432.691-.49 1.15h2.76Zm11.056 3.655c0 1.392-.403 2.468-1.209 3.23-.805.767-1.972 1.15-3.5 1.15-1.011 0-1.812-.144-2.403-.432v-1.948c.772.449 1.55.673 2.337.673.78 0 1.386-.207 1.816-.622.43-.41.644-.97.644-1.677v-.594h-.029c-.527.84-1.306 1.26-2.336 1.26-.957 0-1.716-.337-2.278-1.01-.562-.674-.842-1.578-.842-2.71 0-1.27.312-2.278.937-3.026.625-.747 1.448-1.12 2.468-1.12.913 0 1.597.351 2.051 1.055h.03V14.5h2.314v6.643Zm-2.285-2.747v-.593c0-.473-.142-.876-.425-1.208a1.348 1.348 0 0 0-1.091-.506c-.513 0-.916.2-1.209.6-.293.401-.44.965-.44 1.693 0 .625.14 1.12.418 1.487.279.361.66.542 1.143.542a1.41 1.41 0 0 0 1.157-.55c.298-.37.447-.859.447-1.465Zm9.291-1.809a2.008 2.008 0 0 0-.974-.227c-.503 0-.896.186-1.18.557-.282.366-.424.867-.424 1.502V22h-2.314v-7.5h2.314v1.392h.03c.366-1.016 1.025-1.524 1.977-1.524.244 0 .434.03.571.088v2.131ZM95.121 22h-2.19v-1.077h-.029c-.503.84-1.247 1.26-2.234 1.26-.727 0-1.301-.205-1.72-.615-.416-.415-.623-.967-.623-1.655 0-1.456.861-2.295 2.585-2.52l2.036-.27c0-.821-.444-1.231-1.333-1.231-.894 0-1.743.266-2.549.798v-1.743c.323-.166.762-.313 1.319-.44a7 7 0 0 1 1.53-.19c2.14 0 3.208 1.067 3.208 3.2V22Zm-2.175-3.047v-.505l-1.362.175c-.752.098-1.128.438-1.128 1.019 0 .263.09.48.27.652.186.165.435.248.748.248.434 0 .788-.148 1.062-.446.273-.303.41-.684.41-1.143ZM109.042 22h-2.308v-4.277c0-1.09-.4-1.634-1.201-1.634-.381 0-.691.164-.93.491-.239.327-.359.735-.359 1.223V22h-2.314v-4.321c0-1.06-.393-1.59-1.179-1.59a1.14 1.14 0 0 0-.953.47c-.234.312-.351.736-.351 1.273V22h-2.315v-7.5h2.315v1.172h.03c.238-.4.573-.725 1.003-.974.434-.254.908-.381 1.421-.381 1.059 0 1.784.466 2.175 1.399.571-.933 1.411-1.4 2.519-1.4 1.631 0 2.447 1.007 2.447 3.018V22Z" fill="#fff"/><path d="M117 0H5a5 5 0 0 0-5 5v22a5 5 0 0 0 5 5h112a5 5 0 0 0 5-5V5a5 5 0 0 0-5-5Z" fill="url(#a)"/><defs><linearGradient id="a" x1="0" y1="0" x2="0" y2="32" gradientUnits="userSpaceOnUse"><stop stop-color="#BBB" stop-opacity=".1"/><stop offset="1" stop-opacity=".1"/></linearGradient></defs></svg>